<?xml version="1.0" standalone="no"?>
<!DOCTYPE svg PUBLIC "-//W3C//DTD SVG 20010904//EN"
 "http://www.w3.org/TR/2001/REC-SVG-20010904/DTD/svg10.dtd">
<svg version="1.0" xmlns="http://www.w3.org/2000/svg"
 width="2134.000000pt" height="2134.000000pt" viewBox="0 0 2134.000000 2134.000000"
 preserveAspectRatio="xMidYMid meet">
<metadata>
Created by potrace 1.14, written by Peter Selinger 2001-2017
</metadata>
<g transform="translate(0.000000,2134.000000) scale(0.100000,-0.100000)"
fill="#000000" stroke="none">
<path d="M4415 21331 c-3 -5 -2 -12 3 -15 5 -3 9 1 9 9 0 17 -3 19 -12 6z"/>
<path d="M4488 21333 c6 -2 10 -8 8 -12 -3 -4 5 -8 17 -8 17 -2 19 0 7 7 -8 5
-10 10 -4 10 5 0 15 -5 22 -12 9 -9 12 -9 12 3 0 12 2 12 10 -1 6 -10 10 -11
10 -2 0 6 5 12 12 12 9 0 9 -3 0 -12 -15 -15 -115 -21 -106 -6 4 7 0 7 -13 0
-10 -6 -52 -11 -93 -12 -176 -2 -188 -3 -183 -17 3 -7 9 -10 14 -7 5 3 9 1 9
-5 0 -5 -9 -9 -19 -8 -11 0 -17 6 -14 12 3 5 0 5 -7 -2 -11 -10 -16 -9 -24 2
-8 11 -15 12 -26 4 -13 -9 -12 -10 3 -5 9 3 17 1 17 -4 0 -5 -24 -9 -52 -10
-87 -2 -112 -5 -125 -13 -8 -5 -13 -3 -13 4 0 7 -3 10 -6 6 -3 -3 -3 -11 1
-17 5 -8 11 -8 21 1 10 8 18 9 25 2 8 -8 7 -13 -2 -18 -8 -5 -10 -4 -5 3 8 13
-6 16 -18 5 -8 -9 -17 -10 -113 -13 -44 -2 -63 -7 -68 -18 -4 -12 -3 -13 10
-2 19 16 20 3 0 -16 -12 -12 -15 -12 -15 -2 0 10 -3 9 -10 -2 -13 -19 -13 -4
-1 19 7 13 6 18 -4 18 -8 0 -14 -3 -13 -6 3 -34 -4 -41 -42 -41 -36 0 -44 -6
-42 -30 0 -3 -34 -6 -76 -8 -125 -5 -127 -6 -124 -25 2 -14 -5 -17 -46 -17
-52 0 -67 -7 -53 -24 9 -10 -31 -16 -136 -19 -15 -1 -20 -6 -18 -19 3 -14 -3
-18 -25 -18 -23 0 -28 -4 -25 -18 2 -11 -3 -19 -11 -19 -10 0 -11 4 -3 14 15
18 -18 30 -34 13 -10 -10 -8 -12 5 -7 12 4 15 2 11 -9 -3 -7 -15 -14 -27 -15
-101 -4 -101 -4 -103 -24 -2 -15 -1 -16 5 -5 8 17 32 25 32 10 0 -5 -6 -10
-12 -10 -9 0 -8 -4 2 -10 11 -7 2 -10 -32 -11 -69 -2 -71 -3 -75 -19 -3 -9 -1
-11 4 -5 10 13 36 18 29 6 -4 -5 -1 -11 5 -13 10 -3 -62 -10 -107 -10 -11 0
-21 -7 -21 -15 0 -7 6 -12 13 -9 8 3 16 2 18 -3 3 -4 0 -8 -7 -8 -7 -1 -33 -2
-59 -4 -26 -1 -47 -5 -46 -8 2 -23 -6 -31 -32 -31 -30 0 -37 -15 -15 -33 6 -5
4 -7 -5 -4 -8 2 -15 9 -15 15 0 5 -3 14 -7 18 -5 4 -8 -2 -8 -14 0 -21 -23
-29 -68 -23 -8 1 -16 -7 -19 -18 -3 -13 -14 -21 -29 -22 -13 -1 -28 -3 -34 -4
-5 -1 -13 -3 -17 -4 -4 0 -1 -7 5 -13 10 -10 15 -10 22 2 8 12 10 11 10 -6 0
-12 -6 -22 -12 -21 -43 1 -60 -5 -65 -23 -5 -19 -36 -27 -80 -21 -7 1 -13 -7
-13 -19 0 -13 -7 -20 -20 -20 -13 0 -20 -7 -20 -20 0 -12 -6 -20 -12 -19 -7 1
-26 1 -42 0 -23 -1 -27 -5 -23 -20 4 -16 -1 -21 -22 -23 -15 -2 -26 -9 -26
-18 0 -8 -6 -16 -12 -16 -7 -1 -18 -2 -24 -3 -5 0 -8 -5 -5 -10 3 -5 -2 -15
-12 -22 -15 -12 -16 -12 -5 2 14 17 8 29 -14 29 -9 0 -13 -8 -11 -22 2 -17 -3
-24 -19 -26 -13 -2 -23 -10 -23 -18 0 -16 -46 -37 -62 -28 -5 3 -12 -3 -15
-15 -3 -12 -13 -21 -24 -21 -13 0 -19 -7 -19 -21 0 -14 -5 -19 -14 -16 -17 7
-36 -11 -30 -27 4 -11 -2 -13 -60 -18 -25 -2 -30 -17 -11 -30 6 -4 -5 -8 -24
-8 -25 0 -32 -4 -27 -15 6 -17 -21 -48 -35 -40 -5 4 -9 -3 -9 -14 0 -14 -6
-21 -20 -21 -13 0 -20 -7 -20 -20 0 -13 -7 -20 -20 -20 -13 0 -20 -7 -20 -20
0 -11 -4 -20 -10 -20 -5 0 -10 5 -10 12 0 6 -9 1 -20 -12 -11 -12 -17 -27 -14
-31 3 -5 -7 -9 -21 -9 -23 0 -25 -3 -20 -22 4 -16 3 -19 -3 -9 -7 10 -11 10
-14 1 -2 -6 -15 -13 -30 -13 -25 -2 -31 -18 -13 -34 4 -4 5 -3 2 3 -4 7 -1 14
6 17 7 3 13 -3 13 -12 0 -18 -5 -20 -49 -23 -14 -1 -24 -9 -25 -20 -1 -10 -3
-26 -4 -36 -1 -10 -8 -19 -15 -19 -8 0 -9 6 -3 17 6 12 5 17 -5 17 -8 0 -12
-4 -9 -9 8 -13 -16 -39 -29 -31 -6 3 -7 1 -3 -6 4 -6 11 -9 15 -7 4 3 8 0 8
-7 0 -7 -8 -13 -18 -13 -10 0 -16 4 -13 7 2 4 0 11 -6 14 -6 4 -10 3 -9 -2 4
-21 -2 -33 -15 -33 -8 0 -18 -9 -21 -20 -3 -11 -11 -20 -16 -20 -5 0 -9 -5 -9
-11 0 -5 5 -7 10 -4 6 3 10 1 10 -6 0 -6 -8 -9 -20 -6 -19 5 -26 -12 -21 -45
0 -5 -8 -8 -19 -8 -13 0 -20 -7 -20 -20 0 -13 -7 -20 -20 -20 -13 0 -20 -7
-20 -20 0 -13 -7 -20 -20 -20 -13 0 -20 -7 -20 -20 0 -13 -7 -20 -20 -20 -20
0 -43 -38 -37 -62 1 -6 -4 -13 -12 -15 -10 -4 -11 1 -6 18 6 19 5 21 -5 13 -7
-7 -12 -28 -12 -48 0 -24 -5 -36 -14 -36 -8 0 -14 5 -14 11 0 5 5 7 12 3 7 -4
8 -3 4 5 -11 17 -26 3 -26 -24 0 -14 -9 -29 -20 -35 -11 -6 -20 -20 -20 -31 0
-16 -4 -19 -20 -14 -11 4 -20 3 -19 -2 6 -35 -3 -65 -22 -70 -15 -4 -19 -11
-15 -25 4 -17 1 -19 -20 -15 -30 5 -34 0 -36 -53 -1 -23 -5 -36 -9 -28 -4 6
-6 15 -4 18 2 4 -2 7 -10 7 -8 0 -14 -3 -13 -6 0 -3 0 -21 -1 -38 -1 -26 -5
-33 -20 -33 -16 0 -20 -8 -23 -37 -2 -20 -9 -38 -15 -41 -7 -2 -13 1 -13 8 0
6 4 9 8 6 5 -3 9 1 9 8 0 30 -23 10 -25 -22 -3 -43 -9 -53 -25 -46 -11 4 -17
-15 -20 -73 0 -7 -7 -15 -14 -17 -9 -4 -11 -1 -7 6 4 7 3 8 -4 4 -7 -4 -12
-25 -12 -47 0 -22 -5 -39 -11 -39 -6 0 -9 7 -6 15 4 8 1 17 -6 21 -7 4 -9 4
-5 -1 4 -4 1 -13 -7 -19 -9 -6 -16 -29 -17 -54 -1 -24 -4 -38 -8 -32 -11 17
-27 -10 -33 -53 -6 -45 -12 -54 -21 -32 -4 11 -2 14 6 9 7 -4 8 -3 4 4 -18 29
-26 9 -27 -63 0 -23 -18 -47 -30 -39 -5 3 -9 -5 -10 -18 -2 -54 -13 -79 -23
-53 -3 9 -2 13 4 10 6 -3 7 1 4 10 -12 30 -24 -9 -25 -81 -1 -27 -6 -41 -15
-41 -10 0 -11 4 -3 13 6 8 6 14 0 18 -15 10 -21 -8 -22 -63 -2 -49 -6 -56 -36
-52 -11 2 -20 -57 -14 -92 1 -4 -8 -3 -19 3 -11 6 -20 7 -19 3 1 -4 1 -27 0
-51 -1 -31 -4 -41 -13 -36 -10 6 -10 4 -1 -7 18 -19 16 -29 -6 -29 -15 0 -19
-7 -19 -36 0 -35 -17 -58 -34 -48 -4 3 -8 1 -8 -4 0 -6 7 -13 16 -16 8 -3 12
-2 9 4 -3 6 -1 10 4 10 6 0 11 -7 11 -16 0 -10 -5 -14 -15 -10 -19 7 -23 -4
-28 -74 -3 -45 -7 -54 -20 -52 -14 2 -17 -6 -18 -45 -2 -72 -3 -76 -19 -81
-12 -4 -13 -3 -3 10 10 12 10 15 0 15 -7 0 -13 -11 -13 -24 0 -18 4 -22 21
-18 17 4 17 4 -2 -6 -20 -10 -23 -20 -23 -66 0 -30 -4 -53 -11 -53 -5 0 -7 6
-3 13 6 9 5 9 -8 0 -8 -7 -17 -10 -20 -8 -3 3 -5 -5 -5 -17 -1 -129 -4 -159
-14 -152 -8 4 -8 0 0 -15 9 -16 9 -21 0 -21 -9 0 -9 -3 0 -14 9 -10 8 -15 -2
-19 -10 -4 -13 2 -12 17 2 13 0 28 -4 34 -7 11 -11 -49 -14 -205 -2 -56 -5
-69 -14 -61 -17 13 -17 21 0 12 8 -5 8 -2 -2 9 -7 9 -14 17 -15 17 -2 0 -8
-179 -9 -287 -1 -72 -4 -89 -14 -81 -15 12 -17 22 -3 13 5 -3 10 -2 10 3 0 6
-6 12 -13 15 -19 7 -17 -95 2 -111 14 -11 14 -11 1 -7 -11 4 -16 -1 -17 -15
-1 -13 2 -18 10 -13 8 5 8 2 -1 -9 -17 -21 -18 -12145 0 -12183 6 -13 14 -22
18 -20 4 2 7 -17 7 -43 1 -144 7 -197 22 -209 10 -7 16 -28 17 -55 1 -23 3
-78 5 -120 2 -54 7 -79 16 -82 16 -6 14 24 -2 37 -6 5 -4 7 5 4 10 -2 15 -18
16 -48 5 -166 9 -195 25 -195 10 0 15 6 12 13 -3 7 -9 13 -15 13 -5 0 -6 4 -3
10 4 6 11 5 19 -2 14 -14 15 -16 16 -93 1 -30 6 -55 11 -55 5 0 9 -5 9 -11 0
-5 -4 -8 -8 -5 -11 7 -8 -31 3 -41 4 -5 5 -2 1 5 -4 6 -2 12 4 12 6 0 9 4 5 9
-3 5 -1 12 3 15 5 3 10 -23 11 -57 3 -84 6 -100 19 -105 16 -5 15 11 0 26 -9
9 -9 12 3 12 17 0 17 1 19 -83 1 -31 6 -60 12 -63 5 -3 4 -13 -4 -22 -12 -15
-11 -16 5 -3 24 19 29 11 29 -43 0 -42 1 -45 19 -36 10 6 19 7 19 2 0 -5 -10
-13 -22 -19 l-23 -10 23 -7 c17 -6 22 -15 23 -44 1 -20 1 -40 0 -44 0 -5 4 -8
10 -8 6 0 8 9 4 23 -5 18 -3 17 10 -6 9 -15 15 -33 14 -40 -5 -40 2 -66 16
-61 8 4 12 11 8 18 -4 7 -1 6 9 -2 15 -12 17 -19 20 -98 2 -29 6 -40 15 -37 7
3 13 9 13 15 0 5 -4 7 -8 4 -5 -3 -9 1 -9 8 0 25 23 12 24 -13 2 -80 7 -101
25 -101 17 0 23 -19 19 -63 -2 -11 5 -17 19 -17 16 0 21 -5 18 -23 -2 -16 2
-21 13 -19 9 1 20 -5 23 -14 5 -14 4 -15 -8 -5 -11 9 -15 8 -20 -5 -4 -10 -1
-22 5 -28 9 -8 10 -8 5 2 -8 14 10 17 19 2 3 -5 6 -25 7 -45 1 -22 6 -35 15
-35 7 0 13 5 13 11 0 5 -4 8 -8 5 -5 -3 -9 1 -9 8 0 30 23 9 26 -23 3 -62 7
-74 23 -77 8 -1 15 4 15 12 0 7 -4 11 -8 8 -4 -2 -10 -1 -13 4 -2 4 4 9 15 9
16 2 19 -5 19 -38 0 -32 3 -39 20 -39 20 0 26 -22 20 -74 -1 -10 2 -16 7 -13
16 10 32 -8 35 -40 1 -17 6 -29 10 -27 4 3 8 0 8 -7 0 -7 3 -9 6 -6 4 4 1 14
-7 23 -12 15 -12 17 1 12 9 -3 16 -20 18 -41 3 -29 7 -37 23 -37 17 0 26 -26
20 -62 0 -5 4 -8 10 -8 5 0 7 -5 3 -12 -4 -7 -3 -8 4 -4 8 5 9 13 3 25 -7 13
-6 18 4 18 7 0 13 -10 13 -21 -2 -57 2 -66 27 -66 20 0 25 -5 25 -25 0 -17 4
-23 14 -19 17 7 23 -2 27 -41 3 -20 11 -32 24 -36 12 -3 19 -12 17 -22 -2 -11
4 -17 18 -17 11 0 19 -3 19 -7 -4 -25 2 -57 9 -46 4 7 12 9 17 5 10 -7 12 -14
19 -55 1 -12 6 -21 9 -19 4 1 10 2 13 2 4 0 1 6 -5 13 -8 10 -7 14 3 14 7 0
13 -7 13 -16 0 -42 4 -61 11 -60 26 4 42 -3 42 -21 0 -13 7 -20 20 -20 13 0
20 -7 20 -20 0 -14 7 -20 24 -20 19 0 22 -4 18 -25 -3 -20 0 -25 17 -25 16 0
21 -6 21 -24 0 -20 4 -23 22 -18 18 4 20 2 16 -16 -6 -21 1 -26 30 -23 6 1 12
-6 12 -16 0 -15 -2 -16 -10 -3 -7 11 -10 11 -10 2 0 -8 -5 -10 -12 -6 -8 4
-10 3 -5 -2 8 -9 12 -10 38 -13 6 0 9 -8 5 -16 -3 -8 -1 -15 4 -15 19 0 25 -2
35 -10 6 -4 17 -6 26 -5 9 2 16 -3 16 -11 0 -10 -4 -11 -13 -3 -13 10 -32 -6
-20 -18 3 -4 6 -1 6 5 0 9 5 9 20 0 12 -8 18 -20 16 -34 -3 -17 1 -21 17 -20
17 1 22 -4 21 -21 -1 -15 4 -20 17 -18 9 2 20 -3 23 -11 3 -8 11 -14 18 -14 9
0 9 3 -2 11 -13 9 -13 10 0 6 8 -2 14 -12 14 -21 -1 -9 6 -16 17 -16 10 0 21
-5 25 -11 4 -8 -1 -9 -17 -5 -24 7 -24 7 1 -8 14 -9 33 -15 43 -16 10 0 22
-11 27 -25 6 -16 14 -23 25 -19 10 4 15 0 15 -15 0 -14 6 -21 20 -21 15 0 20
-7 20 -25 0 -26 24 -35 33 -12 3 6 6 -3 6 -21 1 -26 5 -33 19 -30 9 2 21 -5
27 -17 7 -14 22 -21 48 -23 29 -3 37 -7 35 -20 -2 -11 5 -18 20 -20 12 -2 20
-7 18 -11 -9 -14 10 -31 36 -33 22 -2 25 -5 17 -20 -6 -12 -6 -18 1 -18 5 0
10 6 10 13 1 6 7 1 15 -13 8 -14 14 -19 15 -12 0 14 30 17 30 2 0 -5 -5 -10
-11 -10 -6 0 -4 -7 5 -15 8 -8 22 -15 30 -15 9 0 16 -5 16 -11 0 -8 6 -7 17 2
15 11 14 9 -1 -9 -19 -22 -19 -22 5 -22 65 -1 69 -2 69 -18 0 -15 -2 -15 -10
-2 -9 13 -10 13 -10 0 0 -13 -1 -13 -11 0 -9 13 -10 13 -6 0 4 -15 7 -17 52
-19 17 -1 25 -7 25 -19 0 -13 9 -18 31 -20 43 -3 52 -11 38 -28 -7 -9 -8 -14
-3 -13 30 5 56 -2 51 -15 -3 -8 1 -17 9 -20 23 -9 26 -7 18 7 -6 9 -4 9 7 -1
7 -6 23 -12 36 -12 18 0 23 -6 23 -25 0 -22 4 -25 40 -25 41 0 52 -12 24 -28
-12 -7 -8 -9 17 -10 31 -1 53 -18 43 -34 -6 -10 10 -11 19 -1 4 3 2 11 -3 18
-7 8 -5 12 4 12 8 0 13 -8 11 -19 -3 -14 2 -18 26 -18 22 0 29 -5 29 -20 0
-11 4 -20 9 -20 6 0 8 8 6 18 -2 11 3 19 11 19 9 0 11 -4 4 -12 -12 -15 -3
-25 22 -25 25 0 53 -26 35 -33 -6 -2 5 -5 27 -5 21 0 43 -6 50 -12 8 -10 8
-11 -1 -6 -9 5 -11 2 -7 -8 3 -9 10 -16 16 -16 5 0 6 5 3 10 -3 6 -1 10 5 10
6 0 8 5 4 12 -4 7 -3 8 4 4 6 -4 9 -13 5 -21 -4 -12 3 -15 32 -15 21 0 34 -4
30 -10 -3 -5 -1 -10 6 -10 9 0 9 -3 0 -14 -9 -10 -7 -13 6 -13 55 0 74 -4 67
-14 -4 -7 1 -7 16 1 12 7 20 8 16 2 -9 -15 15 -30 54 -35 23 -2 35 -9 34 -19
-1 -11 11 -16 50 -17 28 -2 57 -3 64 -4 8 0 12 -8 9 -17 -4 -16 15 -21 101
-23 12 -1 22 -7 22 -15 0 -11 -3 -12 -14 -3 -10 8 -16 9 -21 1 -3 -5 -5 -10
-3 -11 12 -3 81 -10 119 -12 29 -1 46 -6 46 -14 0 -9 -4 -10 -13 -2 -13 10
-32 -6 -20 -18 3 -4 6 -1 6 7 0 9 4 9 12 2 7 -5 29 -10 48 -10 39 0 99 -10
112 -18 4 -3 8 -11 7 -17 0 -9 -2 -9 -6 1 -6 16 -20 15 -20 -2 0 -10 17 -14
60 -15 48 -1 64 -6 78 -23 11 -11 19 -17 19 -12 0 6 -5 15 -12 22 -9 9 -8 12
5 12 10 0 17 -8 17 -20 0 -11 5 -20 11 -20 5 0 7 6 3 13 -6 9 -5 9 7 0 9 -7
48 -13 87 -14 49 -1 72 -6 76 -15 6 -15 -14 -15 -27 1 -5 6 -7 4 -4 -5 3 -12
26 -16 113 -18 101 -3 131 -12 118 -33 -5 -9 17 -6 35 5 10 6 12 5 7 -2 -4 -7
-2 -12 3 -12 6 0 11 6 11 14 0 8 5 18 11 22 8 4 9 0 4 -15 -6 -20 -4 -21 97
-22 186 -2 237 -4 233 -8 -2 -2 2 -10 10 -17 11 -12 941 -14 6085 -14 3555 0
6069 4 6066 9 -14 22 40 29 231 30 97 1 112 3 116 18 4 17 5 17 6 1 0 -10 5
-18 10 -18 11 0 32 25 26 32 -3 3 12 5 32 5 148 2 195 9 166 26 -5 2 -3 2 4 1
6 -2 14 2 17 9 3 9 5 9 5 0 1 -7 8 -13 16 -13 8 0 15 -5 15 -12 0 -6 3 -8 6
-5 4 4 1 13 -5 21 -11 13 -9 15 11 14 12 0 52 0 87 1 57 1 63 3 58 20 -4 15 1
19 22 18 81 -1 131 4 131 14 0 5 -4 8 -8 5 -5 -3 -9 1 -9 9 0 21 15 19 21 -3
3 -10 15 -18 26 -18 19 0 19 0 0 19 -11 10 -20 19 -20 21 0 3 64 8 118 9 17 0
32 5 32 11 0 6 5 4 11 -4 9 -13 10 -13 6 0 -2 8 -11 14 -21 12 -9 -2 -16 1
-16 6 0 7 41 11 122 13 10 0 20 5 24 10 3 5 1 8 -4 7 -6 -2 -12 1 -14 7 -3 8
13 11 100 14 16 1 22 6 20 18 -3 18 -1 19 110 22 13 1 21 5 17 11 -3 5 -13 6
-22 3 -11 -4 -14 -3 -9 6 5 7 14 10 22 7 8 -3 14 -1 14 4 0 6 20 10 44 10 41
0 44 2 39 23 l-6 22 19 -20 c10 -11 16 -16 12 -11 -16 21 -11 23 71 30 14 1
25 9 27 20 2 13 -1 14 -10 7 -7 -6 -17 -7 -21 -3 -5 4 -5 0 0 -8 5 -8 4 -12 0
-7 -21 19 -11 32 27 34 27 2 45 10 57 24 14 17 18 19 18 6 0 -9 -4 -14 -9 -11
-4 3 -8 0 -8 -5 0 -6 7 -11 15 -11 8 0 15 9 15 20 0 17 7 20 41 20 22 0 38 4
35 8 -10 17 11 31 52 33 45 3 49 7 30 28 -7 7 -8 12 -3 11 6 -2 22 -2 37 -1
21 1 26 5 23 21 -3 13 2 20 12 20 12 0 13 -3 4 -13 -6 -8 -8 -17 -4 -20 9 -10
25 -9 19 1 -9 16 11 33 42 35 18 1 34 7 36 13 3 7 -3 10 -15 7 -11 -3 -19 0
-19 6 0 7 6 11 13 10 6 -1 24 -1 40 0 21 1 27 6 27 25 0 16 6 23 18 23 61 0
72 4 72 22 0 13 8 21 23 23 13 2 22 10 21 19 -1 16 4 18 52 21 18 1 24 7 21
18 -4 16 11 21 71 23 26 1 26 1 5 18 -9 8 -14 9 -10 3 3 -6 0 -11 -7 -11 -7 0
-13 6 -13 12 0 7 10 12 21 12 62 0 75 3 70 18 -5 13 -9 13 -23 3 -14 -12 -15
-11 -2 4 7 10 24 18 37 18 17 0 24 6 24 19 0 24 8 30 49 33 17 1 31 6 31 11 0
5 -10 6 -22 2 -21 -5 -21 -5 2 9 14 9 33 15 44 16 13 0 17 5 13 20 -4 17 0 20
24 20 22 0 29 5 29 20 0 15 7 20 26 20 17 0 23 4 18 13 -5 8 -2 7 9 -2 10 -8
21 -11 25 -7 4 4 -2 15 -13 23 -16 12 -16 14 -3 10 19 -7 43 24 30 38 -4 5 -2
5 5 1 7 -4 10 -13 6 -21 -3 -8 0 -15 6 -15 6 0 11 15 12 33 0 17 3 26 6 20 2
-7 12 -13 20 -13 11 0 14 7 11 25 -4 21 -1 25 18 25 21 0 29 10 25 33 0 4 10
7 24 7 19 0 25 5 25 20 0 12 6 20 13 19 23 -3 52 3 40 8 -18 7 -16 30 2 30 8
0 12 -4 9 -8 -2 -4 -1 -10 4 -13 7 -4 11 10 14 52 1 6 6 12 11 12 5 0 7 -7 4
-14 -4 -10 -1 -13 8 -10 8 3 13 11 12 17 -1 7 7 12 18 12 13 0 19 7 19 18 -2
15 15 22 40 18 5 -1 4 5 -4 13 -8 11 -9 16 -1 16 6 0 11 7 11 16 0 10 6 13 18
10 20 -7 41 25 37 55 -2 9 4 16 12 16 7 0 12 -6 9 -13 -3 -8 0 -16 7 -20 7 -4
9 -4 5 1 -12 13 12 47 28 41 9 -3 12 -2 9 5 -11 16 16 71 31 65 14 -5 18 5 15
31 -1 7 7 13 19 13 15 0 20 6 20 25 0 19 5 25 21 25 16 0 20 5 16 20 -5 19 6
25 40 21 8 -1 13 9 13 22 0 14 8 31 18 38 15 13 16 12 3 -3 -12 -16 -11 -18 3
-18 15 0 19 13 19 62 0 10 3 15 8 13 4 -3 14 1 22 9 8 8 18 12 23 8 5 -4 2 2
-6 12 -14 18 -13 19 8 14 19 -5 22 -2 22 23 0 22 5 29 20 29 18 0 26 20 21 53
-2 12 17 8 22 -5 2 -7 8 -10 12 -6 4 4 2 15 -6 25 -9 11 -10 14 -1 9 8 -5 12
1 12 18 0 19 5 26 19 26 11 0 22 -6 24 -12 3 -7 6 2 6 20 1 25 5 32 21 32 16
0 20 7 21 38 1 20 1 40 1 43 -1 3 5 6 13 6 15 0 16 -18 2 -28 -5 -3 -3 -9 5
-11 9 -4 14 6 15 35 3 40 18 61 37 50 5 -4 7 3 4 15 -4 12 -3 22 2 22 4 0 7 8
6 17 0 11 7 19 20 21 16 2 20 8 17 23 -5 18 5 24 31 20 5 -1 6 5 3 12 -3 8 2
25 10 38 9 12 11 19 5 15 -7 -4 -12 -1 -12 8 0 10 9 16 25 16 23 0 25 4 25 47
0 25 3 43 8 39 7 -7 8 -11 11 -37 0 -5 6 -7 12 -3 8 5 8 9 -1 14 -9 5 -9 9 -1
14 6 4 11 18 11 31 0 13 5 27 10 30 6 4 7 11 4 17 -4 7 -2 8 5 4 8 -6 9 -12 2
-20 -8 -9 -7 -13 2 -13 7 0 13 16 15 36 4 60 8 73 25 86 9 7 18 24 19 38 2 18
6 23 12 17 12 -12 27 -13 25 -2 -6 35 3 70 19 74 17 5 23 28 25 104 1 17 7 21
24 19 19 -2 23 3 24 29 1 17 1 37 0 44 -1 7 2 12 6 11 22 -4 33 3 33 19 0 10
6 24 13 31 10 11 10 13 0 7 -9 -5 -13 0 -13 12 0 15 5 19 19 15 16 -4 19 2 21
44 3 80 4 83 15 80 5 -2 9 -11 9 -20 -1 -9 2 -14 7 -11 10 6 7 33 -5 53 -6 10
-5 12 2 7 13 -8 14 -3 15 61 0 36 2 40 14 27 19 -19 20 -18 18 16 -1 17 1 32
4 35 4 2 6 22 5 44 0 22 2 40 5 39 24 -2 33 4 28 22 -3 11 -2 20 2 20 4 0 6
18 4 40 -2 29 1 40 11 40 8 0 13 8 12 18 0 9 5 16 12 15 8 -2 12 12 12 48 0
31 4 48 10 44 6 -3 10 -1 10 5 0 6 3 9 8 7 4 -3 8 29 10 71 2 46 8 80 15 84 9
6 9 8 0 8 -6 0 -11 13 -11 30 1 26 2 28 14 12 9 -13 9 -19 1 -25 -8 -6 -7 -7
3 -4 16 4 17 14 19 145 1 80 2 83 22 77 19 -6 20 -5 8 8 -8 8 -18 12 -24 9 -5
-3 -4 2 4 11 7 9 9 17 4 17 -5 0 -9 9 -9 20 0 25 14 12 19 -17 5 -34 14 -37
14 -5 0 15 1 82 2 149 1 120 1 121 24 116 22 -4 22 -4 1 9 -26 17 -28 75 -1
70 9 -2 17 2 17 8 0 5 -4 10 -10 10 -5 0 -10 7 -10 15 0 8 5 15 10 15 6 0 10
5 10 11 0 6 -10 8 -22 5 l-23 -6 23 11 22 12 0 6013 c0 4800 -3 6013 -12 6017
-10 4 -10 6 0 6 15 1 17 71 1 71 -5 0 -7 -4 -4 -10 4 -6 -1 -7 -11 -3 -16 6
-16 8 3 16 18 8 21 17 20 62 -1 35 -6 51 -13 48 -7 -2 -11 -15 -10 -28 0 -13
3 -22 6 -20 13 8 7 -35 -6 -46 -9 -7 -14 -8 -14 -1 0 6 6 13 13 15 8 4 9 8 2
14 -6 4 -11 37 -12 73 -4 233 -6 270 -15 270 -7 0 -7 4 -1 13 11 13 9 45 -3
55 -4 4 -4 -1 -1 -10 4 -11 1 -18 -6 -18 -9 0 -9 -2 1 -9 11 -6 10 -10 -1 -19
-10 -9 -14 -9 -14 1 -1 6 -2 63 -3 125 -2 76 -6 112 -14 112 -7 0 -7 3 -1 8 6
4 11 14 13 22 1 11 -2 9 -13 -4 -12 -16 -12 -22 -2 -35 9 -12 9 -13 0 -7 -7 4
-13 3 -13 -1 0 -5 6 -15 13 -23 10 -12 9 -12 -5 -1 -9 7 -16 26 -16 44 1 114
-2 148 -14 141 -9 -5 -9 -2 1 9 12 15 11 17 -6 17 -16 0 -19 8 -21 57 -1 31
-7 60 -13 64 -8 4 -7 8 2 11 7 2 10 11 6 21 -8 23 -28 22 -21 0 4 -14 2 -13
-7 2 -8 11 -14 31 -15 45 -2 14 -4 46 -6 72 -2 26 -8 50 -14 52 -6 2 -11 -2
-11 -10 0 -8 4 -14 9 -14 5 0 6 -5 3 -11 -4 -6 -10 -8 -13 -5 -6 6 -13 76 -15
139 0 20 -4 37 -9 37 -4 0 -7 -3 -7 -7 3 -18 -2 -33 -10 -33 -5 0 -8 18 -7 40
1 22 -1 40 -5 40 -3 0 -6 10 -5 23 1 15 -4 21 -15 19 -13 -2 -17 6 -18 30 -2
30 -8 96 -10 108 -1 3 -6 -3 -12 -13 -5 -9 -8 -21 -4 -26 3 -5 2 -12 -3 -14
-4 -3 -8 16 -10 41 -4 85 -14 109 -33 82 -8 -12 -9 -11 -7 5 2 12 11 19 21 19
9 -1 14 3 11 8 -3 5 -12 7 -20 4 -10 -4 -14 3 -15 24 -2 50 -3 53 -22 56 -25
3 -26 4 -28 52 -2 23 -7 42 -12 42 -4 0 -6 -10 -2 -22 5 -19 3 -18 -10 4 -9
16 -16 44 -17 63 -1 28 -4 33 -15 23 -7 -6 -16 -8 -20 -4 -3 3 -1 6 5 6 7 0
12 5 12 11 0 5 -4 7 -10 4 -9 -6 -13 11 -13 58 0 19 -8 22 -23 7 -9 -9 -15 16
-17 78 -1 17 -5 21 -19 16 -15 -4 -18 0 -18 26 0 27 -3 30 -20 25 -18 -6 -20
-2 -20 34 0 37 -2 41 -25 41 -23 0 -25 4 -25 48 0 32 -3 42 -9 32 -6 -8 -7
-18 -4 -24 3 -5 1 -6 -5 -2 -5 3 -13 0 -15 -6 -4 -9 -6 -10 -6 -1 -1 6 4 15 9
18 6 3 10 11 10 16 0 6 -5 7 -11 3 -7 -4 -10 -1 -7 7 3 8 -1 26 -8 40 -7 15
-10 30 -6 34 4 5 1 5 -6 1 -7 -5 -11 -14 -8 -22 3 -8 1 -14 -5 -14 -6 0 -9 8
-8 18 4 45 -1 62 -21 62 -15 0 -20 7 -20 28 0 33 -15 59 -24 43 -4 -6 -2 -11
3 -11 6 0 11 -4 11 -8 0 -5 -6 -9 -14 -9 -8 0 -13 8 -11 19 2 10 0 18 -4 18
-5 0 -6 11 -3 25 3 20 0 25 -17 25 -11 0 -21 3 -22 8 -3 35 -19 71 -19 44 0
-7 -7 -12 -15 -12 -8 0 -15 5 -15 11 0 5 5 7 10 4 15 -9 12 4 -5 21 -8 8 -11
22 -8 30 5 13 1 15 -15 9 -19 -5 -22 -3 -22 24 0 16 -5 33 -12 37 -7 4 -8 3
-4 -4 4 -7 1 -12 -8 -12 -9 0 -16 8 -16 19 0 10 -9 21 -20 24 -19 5 -26 30
-21 77 2 13 1 13 -8 0 -5 -8 -7 -19 -3 -25 3 -5 -2 -4 -11 4 -9 7 -17 27 -17
43 0 19 -4 28 -12 26 -7 -3 -13 -10 -13 -16 0 -28 -10 -16 -12 15 -2 44 -8 50
-30 32 -11 -9 -14 -10 -9 -1 4 6 2 12 -3 12 -6 0 -11 9 -11 20 0 13 -7 20 -19
20 -13 0 -21 8 -23 23 -2 15 -9 21 -21 19 -9 -2 -17 1 -16 5 4 25 -3 42 -21
48 -11 4 -18 11 -15 16 4 5 -6 14 -20 19 -18 7 -25 15 -21 25 3 10 -1 15 -14
15 -23 0 -35 16 -19 26 6 3 16 0 21 -7 8 -12 9 -11 5 1 -2 8 -12 15 -23 15
-13 0 -19 7 -18 21 1 22 -18 27 -33 9 -4 -4 -2 -5 6 0 10 6 12 4 6 -5 -6 -9
-4 -11 6 -5 8 5 10 4 6 0 -14 -16 -35 -13 -32 4 1 9 -9 21 -24 28 -24 12 -24
12 -2 7 17 -4 22 -2 19 7 -3 8 -13 14 -24 14 -12 0 -18 6 -16 16 1 9 -5 23
-15 30 -11 9 -14 10 -9 2 4 -7 2 -13 -3 -13 -6 0 -11 7 -11 16 0 8 -4 12 -10
9 -5 -3 -10 -1 -10 4 0 6 5 11 10 11 6 0 10 5 10 11 0 8 -5 7 -15 -1 -18 -15
-25 -10 -28 18 -1 12 -6 18 -15 15 -11 -5 -11 -7 0 -14 10 -7 9 -9 -4 -9 -21
0 -23 11 -5 29 6 7 8 12 2 11 -5 -2 -21 -2 -34 -1 -21 1 -22 3 -10 18 10 11
10 14 2 9 -7 -4 -13 -2 -13 3 0 6 -11 11 -25 11 -19 0 -25 5 -23 18 2 11 -4
18 -19 20 -15 2 -23 10 -23 23 0 13 -7 19 -24 19 -21 0 -24 4 -20 25 4 25 -13
31 -28 10 -5 -6 -8 -3 -8 7 0 11 -6 16 -18 13 -10 -2 -19 2 -19 9 0 7 6 13 13
13 7 0 10 -5 7 -10 -3 -6 -1 -7 5 -3 7 4 12 11 12 16 0 8 -8 10 -57 11 -13 0
-22 3 -22 7 4 23 -4 32 -26 32 -19 0 -25 5 -25 21 0 11 -3 18 -8 16 -4 -3 -23
4 -42 14 -20 11 -25 17 -12 14 12 -4 22 -3 22 2 0 8 -19 13 -62 16 -20 1 -25
17 -6 17 6 0 3 6 -7 14 -11 8 -26 11 -34 8 -10 -4 -13 -1 -9 10 9 23 -4 36
-42 39 -43 4 -52 8 -44 20 4 6 11 6 19 -1 9 -8 15 -8 20 0 3 5 5 10 3 11 -2 0
-21 2 -42 5 -38 4 -60 20 -50 36 4 6 -39 13 -67 10 -3 -1 -6 5 -6 13 0 8 5 11
10 8 6 -3 7 -1 3 5 -4 7 -19 12 -33 12 -15 0 -23 3 -20 7 14 14 -17 33 -54 33
-32 0 -39 3 -39 20 0 20 -17 25 -62 21 -11 -2 -18 5 -18 15 0 13 3 14 14 5 10
-9 16 -9 21 -1 13 21 -11 29 -85 32 -19 0 -29 3 -22 5 6 3 9 10 5 16 -5 8 -2
8 8 0 13 -10 16 -10 16 1 0 7 -7 13 -16 13 -47 0 -59 5 -64 23 -4 16 -14 20
-45 20 -31 0 -41 4 -45 20 -4 15 -14 20 -39 20 -39 0 -52 8 -39 24 9 11 -8 14
-105 19 -11 1 -21 6 -21 13 0 12 15 13 33 2 6 -4 11 -1 11 6 0 9 -15 14 -41
16 -23 1 -51 2 -63 3 -14 1 -21 7 -20 19 1 10 6 16 12 14 5 -2 9 -9 7 -15 -1
-7 2 -10 8 -6 15 9 -8 36 -29 34 -48 -4 -91 2 -88 14 1 6 7 15 12 19 6 4 0 8
-12 8 -17 0 -21 -5 -18 -21 3 -12 1 -18 -3 -15 -4 4 -7 13 -7 19 0 7 -15 13
-33 15 -18 2 -30 7 -28 11 3 4 0 13 -6 21 -8 12 -9 12 -4 -2 6 -19 -8 -33 -24
-23 -8 5 -7 11 1 21 9 12 5 14 -27 15 -22 1 -47 1 -56 0 -10 -1 -18 3 -18 9 0
6 4 8 10 5 5 -3 7 0 4 8 -4 13 -72 21 -147 19 -11 -1 -17 5 -15 16 3 17 0 18
-94 24 -25 1 -44 6 -42 10 3 4 12 4 21 1 15 -6 16 -5 3 9 -8 9 -17 16 -20 16
-3 0 -31 0 -64 1 -48 1 -57 4 -52 17 4 10 2 13 -6 8 -7 -5 -9 -2 -6 8 5 11 0
15 -15 15 -113 -1 -139 3 -133 20 4 10 4 14 0 11 -4 -4 -15 -3 -25 3 -15 7
-17 6 -13 -6 3 -8 10 -12 15 -9 5 3 9 1 9 -5 0 -17 -39 -8 -43 11 -3 10 -10
18 -16 18 -8 0 -9 -6 -2 -18 7 -14 6 -19 -4 -19 -8 0 -14 3 -13 6 2 18 -3 28
-14 29 -7 0 -43 2 -81 3 -54 2 -67 6 -65 18 4 21 -52 22 -68 2 -9 -11 -12 -12
-19 -1 -5 9 -4 11 3 6 7 -4 12 -3 12 2 0 5 -35 10 -77 11 -141 4 -147 5 -166
26 l-18 20 10 -21 c10 -20 8 -22 -29 -21 -22 1 -35 4 -28 8 6 4 20 5 31 3 16
-3 18 -1 9 8 -13 13 -82 20 -82 8 0 -3 3 -10 8 -16 4 -5 0 -2 -9 8 -17 17 -63
19 -88 4 -10 -6 -12 -5 -7 3 6 8 -1450 11 -6086 10 -3351 0 -6087 -3 -6080 -6z
m12237 -13 c-3 -5 -1 -10 6 -10 7 0 10 -2 7 -5 -3 -3 -13 -2 -22 1 -14 5 -15
9 -4 15 17 11 20 11 13 -1z m-12478 -36 c-3 -3 -12 -4 -19 -1 -8 3 -5 6 6 6
11 1 17 -2 13 -5z m12915 -1 c-6 -3 -10 -8 -8 -12 3 -4 -6 -7 -19 -7 -31 0
-15 21 17 23 13 0 17 -1 10 -4z m408 -108 c0 -5 -5 -3 -10 5 -6 10 -10 11 -10
3 0 -7 -4 -13 -8 -13 -5 0 -9 7 -9 15 0 8 4 12 9 9 4 -3 8 1 8 8 0 9 3 9 10
-2 5 -8 10 -19 10 -25z m-14072 -73 c2 -7 -1 -12 -8 -12 -6 0 -9 4 -6 9 4 5 1
12 -4 14 -6 3 -5 4 2 3 6 -1 14 -8 16 -14z m14476 -37 c-4 -8 -11 -12 -16 -9
-6 4 -5 10 3 15 19 12 19 11 13 -6z m-14716 -39 c15 5 15 4 -1 -6 -20 -13 -41
-4 -30 13 5 8 8 8 10 0 3 -7 12 -10 21 -7z m15222 -166 c0 -5 -5 -10 -11 -10
-5 0 -7 5 -4 10 3 6 8 10 11 10 2 0 4 -4 4 -10z m-15697 -51 c-8 -8 -13 -7
-18 2 -5 8 -4 10 3 5 7 -4 12 -2 12 5 0 7 3 9 7 6 4 -4 2 -12 -4 -18z m15778
4 c13 -16 12 -17 -3 -4 -10 7 -18 15 -18 17 0 8 8 3 21 -13z m96 -38 c0 -7 -6
-12 -13 -12 -7 0 -15 5 -17 12 -3 6 3 11 12 11 10 0 18 -5 18 -11z m-16623
-423 c3 -5 -1 -9 -9 -9 -8 0 -15 4 -15 9 0 4 4 8 9 8 6 0 12 -4 15 -8z m-166
-127 c-3 -3 -9 2 -12 12 -6 14 -5 15 5 6 7 -7 10 -15 7 -18z m-38 -45 c0 -5
-2 -10 -4 -10 -3 0 -8 5 -11 10 -3 6 -1 10 4 10 6 0 11 -4 11 -10z m17985
-249 c-3 -6 -11 -11 -17 -11 -6 0 -6 6 2 15 14 17 26 13 15 -4z m-18322 -34
c3 -8 -1 -14 -8 -14 -7 0 -11 6 -8 14 3 7 6 13 8 13 2 0 5 -6 8 -13z m-123
-127 c0 -5 -7 -10 -16 -10 -8 0 -12 5 -9 10 3 6 10 10 16 10 5 0 9 -4 9 -10z
m-213 -237 c-9 -2 -14 -9 -11 -15 4 -7 2 -8 -5 -4 -15 10 -4 26 17 25 15 -1
15 -2 -1 -6z m19288 -341 c-3 -3 -11 0 -18 7 -9 10 -8 11 6 5 10 -3 15 -9 12
-12z m-19695 -246 c0 -2 -7 -7 -16 -10 -8 -3 -12 -2 -9 4 6 10 25 14 25 6z
m19985 -216 c-3 -5 -12 -10 -18 -10 -7 0 -6 4 3 10 19 12 23 12 15 0z m40 -90
c-3 -5 -12 -10 -18 -10 -7 0 -6 4 3 10 19 12 23 12 15 0z m132 -247 c0 -6 -4
-10 -9 -7 -4 3 -8 -1 -8 -8 0 -9 -3 -9 -10 2 -14 22 -12 29 8 27 10 0 19 -7
19 -14z m-20547 -207 c0 -3 -4 -8 -10 -11 -5 -3 -10 -1 -10 4 0 6 5 11 10 11
6 0 10 -2 10 -4z m20774 -502 c3 -8 2 -12 -4 -9 -6 3 -10 10 -10 16 0 14 7 11
14 -7z m-20967 -135 c-2 -10 -6 -21 -10 -25 -3 -4 -5 3 -2 14 2 15 0 19 -11
15 -14 -5 -20 8 -8 20 12 11 34 -5 31 -24z m21108 -438 c3 -5 0 -13 -6 -17 -7
-4 -9 -3 -5 4 3 5 0 13 -6 15 -9 4 -10 6 -1 6 6 1 14 -3 18 -8z m-21201 -9 c3
-5 -1 -9 -9 -9 -8 0 -15 4 -15 9 0 4 4 8 9 8 6 0 12 -4 15 -8z m-43 -329 c13
-16 12 -17 -3 -4 -17 13 -22 21 -14 21 2 0 10 -8 17 -17z m4 -33 c3 -6 -1 -7
-9 -4 -18 7 -21 14 -7 14 6 0 13 -4 16 -10z m21270 -12089 c3 -5 2 -12 -3 -15
-5 -3 -9 1 -9 9 0 17 3 19 12 6z m-21273 -48 c-6 -2 -10 -8 -7 -13 12 -19 12
-68 0 -64 -7 3 -11 20 -9 42 3 45 1 42 17 41 9 0 9 -2 -1 -6z m8 -104 c0 -14
-17 -10 -23 5 -4 10 -1 13 9 9 7 -3 14 -9 14 -14z m34 -255 c3 -8 2 -12 -4 -9
-6 3 -10 10 -10 16 0 14 7 11 14 -7z m21163 -240 c-3 -3 -12 -4 -19 -1 -8 3
-5 6 6 6 11 1 17 -2 13 -5z m-41 -211 c-3 -21 -26 -30 -26 -10 0 7 3 17 7 20
12 12 21 7 19 -10z m-20911 -431 c-3 -3 -11 0 -18 7 -9 10 -8 11 6 5 10 -3 15
-9 12 -12z m20705 -214 c0 -6 -6 -5 -15 2 -8 7 -15 14 -15 16 0 2 7 1 15 -2 8
-4 15 -11 15 -16z m-20490 -290 c0 -6 -6 -5 -15 2 -8 7 -15 14 -15 16 0 2 7 1
15 -2 8 -4 15 -11 15 -16z m20357 16 c-3 -3 -12 -4 -19 -1 -8 3 -5 6 6 6 11 1
17 -2 13 -5z m-20323 -89 c-4 -8 -11 -15 -16 -15 -6 0 -5 6 2 15 7 8 14 15 16
15 2 0 1 -7 -2 -15z m20281 5 c3 -6 -1 -7 -9 -4 -18 7 -21 14 -7 14 6 0 13 -4
16 -10z m-20068 -385 c0 -8 -4 -12 -9 -9 -5 3 -6 10 -3 15 9 13 12 11 12 -6z
m243 -359 c0 -3 -4 -8 -10 -11 -5 -3 -10 -1 -10 4 0 6 5 11 10 11 6 0 10 -2
10 -4z m177 -221 c0 -8 -4 -15 -9 -15 -10 0 -11 14 -1 23 9 10 10 9 10 -8z
m18813 -244 c0 -6 -4 -13 -10 -16 -5 -3 -10 1 -10 9 0 9 5 16 10 16 6 0 10 -4
10 -9z m-18560 -46 c0 -6 -7 -12 -15 -12 -8 0 -15 6 -15 12 0 6 7 12 15 12 8
0 15 -6 15 -12z m18470 -37 c0 -9 4 -8 10 2 5 8 10 10 10 4 0 -16 -10 -23 -26
-17 -16 6 -19 23 -4 23 6 0 10 -6 10 -12z m-18396 -52 c-3 -9 -10 -13 -16 -10
-5 3 -4 12 3 20 15 18 22 13 13 -10z m18356 9 c-5 -7 -7 -15 -3 -18 3 -4 1 -7
-5 -7 -6 0 -10 8 -9 18 0 10 7 19 14 19 9 0 10 -4 3 -12z m-18310 -43 c0 -13
-12 -22 -22 -16 -10 6 -1 24 13 24 5 0 9 -4 9 -8z m18280 -12 c0 -5 -7 -7 -15
-4 -8 4 -12 10 -9 15 6 11 24 2 24 -11z m-17956 -291 c-3 -5 -10 -7 -15 -3 -5
3 -7 10 -3 15 3 5 10 7 15 3 5 -3 7 -10 3 -15z m17086 -369 c0 -5 -4 -10 -10
-10 -5 0 -10 5 -10 10 0 6 5 10 10 10 6 0 10 -4 10 -10z m-311 -163 c8 -10 7
-14 -2 -14 -8 0 -14 6 -14 14 0 7 1 13 2 13 2 0 8 -6 14 -13z m-69 -31 c0 -3
-4 -8 -10 -11 -5 -3 -10 -1 -10 4 0 6 5 11 10 11 6 0 10 -2 10 -4z m-15614
-91 c-3 -23 -12 -26 -13 -5 -1 11 2 20 7 20 4 0 7 -7 6 -15z m211 -92 c0 -7
-4 -13 -8 -13 -4 0 -9 6 -12 13 -3 8 0 14 7 14 7 0 13 -6 13 -14z m14358 -213
c3 -5 1 -10 -4 -10 -6 0 -11 5 -11 10 0 6 2 10 4 10 3 0 8 -4 11 -10z m-13520
-30 c3 -5 1 -10 -4 -10 -6 0 -11 5 -11 10 0 6 2 10 4 10 3 0 8 -4 11 -10z
m189 -46 c3 -8 2 -12 -4 -9 -6 3 -10 10 -10 16 0 14 7 11 14 -7z m414 -49 c-3
-3 -9 2 -12 12 -6 14 -5 15 5 6 7 -7 10 -15 7 -18z m12097 15 c-3 -5 -1 -10 6
-10 7 0 10 -3 6 -6 -9 -9 -28 6 -22 17 4 5 8 9 11 9 3 0 2 -4 -1 -10z"/>
<path d="M17190 21297 c0 -2 6 -10 14 -16 11 -9 16 -9 22 1 4 7 4 10 -1 6 -4
-4 -14 -3 -22 3 -7 6 -13 9 -13 6z"/>
<path d="M3590 21161 c0 -6 4 -13 10 -16 6 -3 7 1 4 9 -7 18 -14 21 -14 7z"/>
<path d="M3624 21155 c10 -8 23 -12 27 -9 17 10 9 20 -18 22 -26 1 -27 1 -9
-13z"/>
<path d="M17847 21117 c-3 -8 0 -14 7 -14 7 0 13 6 13 14 0 7 -4 13 -8 13 -4
0 -9 -6 -12 -13z"/>
<path d="M3337 21083 c-11 -11 -8 -20 7 -20 8 0 12 6 9 14 -6 15 -7 15 -16 6z"/>
<path d="M2433 20655 c0 -8 4 -12 9 -9 5 3 6 10 3 15 -9 13 -12 11 -12 -6z"/>
<path d="M18895 20650 c-3 -6 1 -7 9 -4 18 7 21 14 7 14 -6 0 -13 -4 -16 -10z"/>
<path d="M2296 20582 c-3 -5 1 -9 9 -9 8 0 12 4 9 9 -3 4 -7 8 -9 8 -2 0 -6
-4 -9 -8z"/>
<path d="M2176 20501 c-3 -5 1 -11 9 -14 9 -4 12 -1 8 9 -6 16 -10 17 -17 5z"/>
<path d="M2060 20411 c0 -7 -5 -9 -12 -5 -7 5 -8 3 -3 -5 5 -9 10 -10 18 -2 6
6 8 14 4 18 -4 3 -7 1 -7 -6z"/>
<path d="M19980 19785 c-7 -9 -8 -15 -2 -15 5 0 12 7 16 15 3 8 4 15 2 15 -2
0 -9 -7 -16 -15z"/>
<path d="M20070 19711 c0 -7 -5 -9 -12 -5 -7 5 -8 3 -3 -5 5 -9 10 -10 18 -2
6 6 8 14 4 18 -4 3 -7 1 -7 -6z"/>
<path d="M940 19291 c0 -7 -5 -9 -12 -5 -7 5 -8 3 -3 -5 5 -9 10 -10 18 -2 6
6 8 14 4 18 -4 3 -7 1 -7 -6z"/>
<path d="M585 18749 c-11 -17 1 -21 15 -4 8 9 8 15 2 15 -6 0 -14 -5 -17 -11z"/>
<path d="M502 18578 c2 -5 8 -9 13 -9 5 0 11 4 13 9 1 5 -4 9 -13 9 -9 0 -14
-4 -13 -9z"/>
<path d="M393 18318 c-2 -16 1 -18 10 -9 7 7 8 14 1 21 -6 6 -10 2 -11 -12z"/>
<path d="M21017 18116 c-4 -10 -1 -13 8 -9 8 3 12 9 9 14 -7 12 -11 11 -17 -5z"/>
<path d="M297 18109 c7 -7 15 -10 18 -7 3 3 -2 9 -12 12 -14 6 -15 5 -6 -5z"/>
<path d="M210 17875 c0 -2 6 -8 13 -14 10 -8 14 -7 14 2 0 8 -6 14 -14 14 -7
0 -13 -1 -13 -2z"/>
<path d="M21150 17745 c0 -8 4 -15 8 -15 5 0 9 7 9 15 0 8 -4 15 -9 15 -4 0
-8 -7 -8 -15z"/>
<path d="M21191 17577 c-8 -10 -7 -14 2 -14 8 0 14 6 14 14 0 7 -1 13 -2 13
-2 0 -8 -6 -14 -13z"/>
<path d="M50 17220 c-9 -6 -10 -10 -3 -10 6 0 15 5 18 10 8 12 4 12 -15 0z"/>
<path d="M40 17186 c0 -2 7 -7 16 -10 8 -3 12 -2 9 4 -6 10 -25 14 -25 6z"/>
<path d="M5 16920 c-3 -6 1 -7 9 -4 18 7 21 14 7 14 -6 0 -13 -4 -16 -10z"/>
<path d="M21314 16896 c1 -8 5 -18 8 -22 4 -3 5 1 4 10 -1 8 -5 18 -8 22 -4 3
-5 -1 -4 -10z"/>
<path d="M3 16865 c0 -7 6 -11 14 -8 16 6 16 10 0 16 -8 3 -14 -1 -14 -8z"/>
<path d="M21304 4532 c2 -9 8 -17 15 -18 8 -2 8 -1 0 3 -8 4 -8 7 1 13 9 5 8
9 -3 13 -10 4 -14 0 -13 -11z"/>
<path d="M49 4218 c-6 -26 -5 -39 3 -44 6 -4 5 -10 -3 -16 -12 -8 -11 -9 1 -6
15 5 22 55 8 64 -4 3 -8 4 -9 2z"/>
<path d="M85 3940 c3 -5 11 -10 16 -10 6 0 7 5 4 10 -3 6 -11 10 -16 10 -6 0
-7 -4 -4 -10z"/>
<path d="M21153 3641 c4 -29 17 -39 17 -13 0 11 -5 24 -10 27 -6 4 -9 -2 -7
-14z"/>
<path d="M21130 3616 c0 -2 8 -10 18 -17 15 -13 16 -12 3 4 -13 16 -21 21 -21
13z"/>
<path d="M21096 3491 c-4 -5 -2 -12 3 -15 5 -4 12 -2 15 3 4 5 2 12 -3 15 -5
4 -12 2 -15 -3z"/>
<path d="M394 3035 c-4 -8 -11 -12 -18 -8 -6 3 -7 2 -3 -2 14 -16 33 -13 33 6
0 23 -5 24 -12 4z"/>
<path d="M20940 3019 c0 -5 5 -7 10 -4 6 3 10 8 10 11 0 2 -4 4 -10 4 -5 0
-10 -5 -10 -11z"/>
<path d="M20889 2957 c-7 -21 -4 -33 11 -33 20 0 23 23 3 30 -7 3 -13 4 -14 3z"/>
<path d="M20769 2708 c-6 -22 -4 -35 6 -35 8 0 13 9 12 19 -1 14 -14 26 -18
16z"/>
<path d="M935 2060 c3 -5 8 -10 11 -10 2 0 4 5 4 10 0 6 -5 10 -11 10 -5 0 -7
-4 -4 -10z"/>
<path d="M20225 1861 c-6 -11 13 -26 22 -17 4 3 0 6 -8 6 -11 0 -11 2 1 10 9
6 10 10 3 10 -6 0 -14 -4 -18 -9z"/>
<path d="M1301 1611 c-8 -5 -9 -11 -3 -15 5 -3 12 1 16 9 6 17 6 18 -13 6z"/>
<path d="M20015 1600 c-3 -5 -1 -10 4 -10 6 0 11 5 11 10 0 6 -2 10 -4 10 -3
0 -8 -4 -11 -10z"/>
<path d="M1878 1073 c7 -3 16 -2 19 1 4 3 -2 6 -13 5 -11 0 -14 -3 -6 -6z"/>
<path d="M19433 1065 c0 -8 4 -12 9 -9 5 3 6 10 3 15 -9 13 -12 11 -12 -6z"/>
<path d="M19026 773 c-6 -14 -5 -15 5 -6 7 7 10 15 7 18 -3 3 -9 -2 -12 -12z"/>
<path d="M2433 685 c0 -8 4 -12 9 -9 5 3 6 10 3 15 -9 13 -12 11 -12 -6z"/>
<path d="M3215 320 c-3 -5 -1 -10 4 -10 6 0 11 5 11 10 0 6 -2 10 -4 10 -3 0
-8 -4 -11 -10z"/>
<path d="M18101 321 c-8 -5 -9 -11 -3 -15 5 -3 12 1 16 9 6 17 6 18 -13 6z"/>
<path d="M17735 200 c3 -5 8 -10 11 -10 2 0 4 5 4 10 0 6 -5 10 -11 10 -5 0
-7 -4 -4 -10z"/>
<path d="M3596 183 c-6 -14 -5 -15 5 -6 7 7 10 15 7 18 -3 3 -9 -2 -12 -12z"/>
<path d="M17563 153 c-17 -6 -17 -20 0 -20 8 0 14 6 14 14 0 7 -1 13 -1 12 -1
0 -7 -3 -13 -6z"/>
<path d="M17406 107 c3 -10 9 -15 12 -12 3 3 0 11 -7 18 -10 9 -11 8 -5 -6z"/>
<path d="M17340 100 c0 -6 7 -10 15 -10 8 0 15 2 15 4 0 2 -7 6 -15 10 -8 3
-15 1 -15 -4z"/>
<path d="M4140 71 c0 -7 -5 -9 -12 -5 -7 5 -8 3 -3 -5 5 -9 10 -10 18 -2 6 6
8 14 4 18 -4 3 -7 1 -7 -6z"/>
<path d="M17143 73 c-7 -2 -13 -8 -13 -12 0 -11 47 -8 57 3 4 5 2 6 -4 2 -7
-4 -13 -2 -13 3 0 12 -7 13 -27 4z"/>
<path d="M4470 29 c0 -5 -6 -7 -12 -3 -7 4 -10 3 -5 -1 13 -15 46 -13 40 2 -6
16 -23 17 -23 2z"/>
<path d="M4506 27 c3 -10 9 -15 12 -12 3 3 0 11 -7 18 -10 9 -11 8 -5 -6z"/>
<path d="M4533 24 c0 -8 11 -14 26 -14 19 0 22 3 13 12 -17 17 -39 18 -39 2z"/>
<path d="M16754 31 c-13 -13 1 -18 46 -17 61 0 62 20 1 21 -23 0 -44 -2 -47
-4z"/>
<path d="M16860 36 c0 -2 7 -7 16 -10 8 -3 12 -2 9 4 -6 10 -25 14 -25 6z"/>
<path d="M16901 24 c0 -11 3 -14 6 -6 3 7 2 16 -1 19 -3 4 -6 -2 -5 -13z"/>
<path d="M4410 26 c0 -2 7 -7 16 -10 8 -3 12 -2 9 4 -6 10 -25 14 -25 6z"/>
</g>
</svg>
